<svg xmlns="http://www.w3.org/2000/svg" viewBox="0 0 512 512" style="enable-background:new 0 0 512 512" xml:space="preserve"><path style="fill:#FFD700" d="M369.376 0H142.624C108.318 0 80.408 27.91 80.408 62.216v387.568C80.408 484.09 108.318 512 142.624 512h226.752C403.682 512 431.592 484.09 431.592 449.784V62.216C431.592 27.91 403.682 0 369.376 0z"/><path style="fill:#DAA520" d="M112 48h288v96H112z"/><path style="fill:#F0E68C" d="M128 64h256v64H128z"/><circle style="fill:#DAA520" cx="160" cy="208" r="24"/><circle style="fill:#DAA520" cx="256" cy="208" r="24"/><circle style="fill:#DAA520" cx="352" cy="208" r="24"/><circle style="fill:#DAA520" cx="160" cy="288" r="24"/><circle style="fill:#DAA520" cx="256" cy="288" r="24"/><circle style="fill:#DAA520" cx="352" cy="288" r="24"/><circle style="fill:#DAA520" cx="160" cy="368" r="24"/><circle style="fill:#DAA520" cx="256" cy="368" r="24"/><circle style="fill:#DAA520" cx="352" cy="368" r="24"/><circle style="fill:#DAA520" cx="160" cy="448" r="24"/><circle style="fill:#DAA520" cx="256" cy="448" r="24"/><circle style="fill:#DAA520" cx="352" cy="448" r="24"/></svg>
